<?xml version="1.0" encoding="utf-8"?>
<!-- Box Plus icon by Arthur Shlain from Usefulicons.com -->
<svg xmlns="http://www.w3.org/2000/svg" xmlns:xlink="http://www.w3.org/1999/xlink" xml:space="preserve" version="1.1" x="0px" y="0px" viewBox="0 0 100 100" width="400px" height="400px"><path d="M94.871,72.5L94.871,27.5L50,5L5.129,27.5L5.129,72.5L50,95L94.871,72.5ZM32.5,50C32.5,40.35,40.35,32.5,50,32.5S67.5,40.35,67.5,50S59.65,67.5,50,67.5S32.5,59.65,32.5,50ZM87.371,67.871L52.5,85.356L52.5,74.875C65.133,73.621,75,62.963,75,50C75,46.868,74.419,43.874,73.367,41.111L87.371,34.109L87.371,67.871ZM50,13.39L83.767,30.322L71.128,36.642C66.696,29.647,58.893,25,50,25S33.304,29.647,28.873,36.641L16.234,30.321L50,13.39ZM47.5,85.356L12.629,67.871L12.629,34.109L26.633,41.111C25.753,43.423,25.206,45.898,25.051,48.48C25.02,48.983,25,49.489,25,50C25,53.91,25.899,57.61,27.5,60.906C27.795,61.514,28.117,62.105,28.459,62.684C30.649,66.395,33.769,69.487,37.5,71.647C40.497,73.381,43.883,74.516,47.5,74.875L47.5,85.356Z" stroke="none"></path><path d="M62.5,47.5L52.5,47.5L52.5,37.5L47.5,37.5L47.5,47.5L37.5,47.5L37.5,52.5L47.5,52.5L47.5,62.5L52.5,62.5L52.5,52.5L62.5,52.5Z" stroke="white"></path></svg>